<?xml version="1.0" encoding="UTF-8" standalone="no"?>
<!-- Created with Inkscape (http://www.inkscape.org/) -->

<svg
   width="150mm"
   height="150mm"
   viewBox="0 0 150.00001 150.00001"
   version="1.1"
   id="svg8"
   inkscape:version="1.3 (0e150ed6c4, 2023-07-21)"
   sodipodi:docname="uhyve.svg"
   inkscape:export-filename="uhyve_1024.png"
   inkscape:export-xdpi="173.39734"
   inkscape:export-ydpi="173.39734"
   xmlns:inkscape="http://www.inkscape.org/namespaces/inkscape"
   xmlns:sodipodi="http://sodipodi.sourceforge.net/DTD/sodipodi-0.dtd"
   xmlns:xlink="http://www.w3.org/1999/xlink"
   xmlns="http://www.w3.org/2000/svg"
   xmlns:svg="http://www.w3.org/2000/svg"
   xmlns:rdf="http://www.w3.org/1999/02/22-rdf-syntax-ns#"
   xmlns:cc="http://creativecommons.org/ns#"
   xmlns:dc="http://purl.org/dc/elements/1.1/">
  <defs
     id="defs2">
    <rect
       x="-776.83105"
       y="-80.160744"
       width="566.92914"
       height="774.8031"
       id="rect63" />
    <rect
       x="434.64566"
       y="177.37054"
       width="383.78268"
       height="451.62302"
       id="rect2" />
    <rect
       x="434.64566"
       y="177.37054"
       width="383.78268"
       height="451.62302"
       id="rect2-6" />
    <mask
       id="holes">
      <rect
         x="-60"
         y="-60"
         width="120"
         height="120"
         fill="#ffffff"
         id="rect2564" />
      <circle
         id="hole"
         cy="-40"
         r="3"
         cx="0" />
      <use
         xlink:href="#hole"
         transform="rotate(72)"
         id="use2567" />
      <use
         xlink:href="#hole"
         transform="rotate(144)"
         id="use2569" />
      <use
         xlink:href="#hole"
         transform="rotate(-144)"
         id="use2571" />
      <use
         xlink:href="#hole"
         transform="rotate(-72)"
         id="use2573" />
    </mask>
    <mask
       id="mask2">
      <path
         style="font-size:377.953px;line-height:125%;font-family:'Fun City Level 2';-inkscape-font-specification:'Fun City Level 2, Normal';letter-spacing:0px;word-spacing:0px;white-space:pre;display:inline;fill:#ffffff;fill-opacity:1;stroke:none;stroke-width:4;stroke-dasharray:none;stroke-opacity:1"
         d="M 308.33011,117.66179 V 51.02037 c 0,-3.417508 1.21162,-6.288216 3.63487,-8.612123 2.56579,-2.460606 5.63047,-3.690909 9.19406,-3.690909 3.5636,0 6.55702,1.230303 8.98026,3.690909 2.56578,2.323907 3.84867,5.194615 3.84867,8.612123 v 66.64142 c 0,19.00135 -6.98464,35.20034 -20.95391,48.59696 -22.56441,21.6394 -78.78537,21.63822 -101.34855,0 C 197.71624,152.86213 190.7316,136.66314 190.7316,117.66179 V 51.02037 c 0,-3.417508 1.21162,-6.288216 3.63486,-8.612123 2.56579,-2.460606 5.63048,-3.690909 9.19408,-3.690909 3.56358,0 6.55699,1.230303 8.98024,3.690909 2.56579,2.323907 3.84869,5.194615 3.84869,8.612123 v 67.66667 c 0.14253,11.75622 4.70392,21.94039 13.68417,30.55252 12.09976,11.41659 52.076,11.77897 64.7861,-0.4101 8.98025,-8.61211 13.47037,-19.00134 13.47037,-31.16767 z"
         id="path3"
         aria-label="U"
         sodipodi:nodetypes="sssscsssssscscsccss" />
    </mask>
  </defs>
  <sodipodi:namedview
     id="base"
     pagecolor="#ffffff"
     bordercolor="#666666"
     borderopacity="1.0"
     inkscape:pageopacity="0.0"
     inkscape:pageshadow="2"
     inkscape:zoom="0.98994949"
     inkscape:cx="217.68787"
     inkscape:cy="249.0026"
     inkscape:document-units="mm"
     inkscape:current-layer="layer1"
     showgrid="true"
     inkscape:window-width="1920"
     inkscape:window-height="1050"
     inkscape:window-x="0"
     inkscape:window-y="0"
     inkscape:window-maximized="1"
     inkscape:showpageshadow="2"
     inkscape:pagecheckerboard="0"
     inkscape:deskcolor="#d1d1d1">
    <inkscape:grid
       type="xygrid"
       id="grid815"
       originx="-715.07147"
       originy="-129.7886"
       spacingy="1"
       spacingx="1"
       units="mm"
       visible="true"
       enabled="false" />
  </sodipodi:namedview>
  <metadata
     id="metadata5">
    <rdf:RDF>
      <cc:Work
         rdf:about="">
        <dc:format>image/svg+xml</dc:format>
        <dc:type
           rdf:resource="http://purl.org/dc/dcmitype/StillImage" />
      </cc:Work>
    </rdf:RDF>
  </metadata>
  <g
     inkscape:label="Layer 1"
     inkscape:groupmode="layer"
     id="layer1"
     transform="translate(-189.196,-31.339902)"
     style="display:inline">
    <g
       id="g59"
       mask="url(#mask2)"
       inkscape:label="g59"
       transform="translate(2.0028308,-3.8085531)"
       style="stroke:#9a4f00;stroke-opacity:1">
      <path
         sodipodi:type="star"
         style="fill:#ffbc00;fill-opacity:1;stroke:#9a4f00;stroke-width:7.71549;stroke-linecap:round;stroke-linejoin:round;stroke-dasharray:none;stroke-opacity:1"
         id="path1"
         inkscape:flatsided="true"
         sodipodi:sides="6"
         sodipodi:cx="793.96204"
         sodipodi:cy="314.84375"
         sodipodi:r1="85.636612"
         sodipodi:r2="74.163483"
         sodipodi:arg1="0.52359878"
         sodipodi:arg2="1.0471976"
         inkscape:rounded="0"
         inkscape:randomized="0"
         d="m 868.12552,357.66206 -74.16348,42.8183 -74.16349,-42.8183 0,-85.63662 74.16349,-42.8183 74.16348,42.8183 z"
         transform="matrix(0.13029085,0,0,0.12893143,95.620664,19.553178)" />
      <path
         sodipodi:type="star"
         style="fill:#ffbc00;fill-opacity:1;stroke:#9a4f00;stroke-width:7.71549;stroke-linecap:round;stroke-linejoin:round;stroke-dasharray:none;stroke-opacity:1"
         id="path1-3"
         inkscape:flatsided="true"
         sodipodi:sides="6"
         sodipodi:cx="793.96204"
         sodipodi:cy="314.84375"
         sodipodi:r1="85.636612"
         sodipodi:r2="74.163483"
         sodipodi:arg1="0.52359878"
         sodipodi:arg2="1.0471976"
         inkscape:rounded="0"
         inkscape:randomized="0"
         d="m 868.12552,357.66206 -74.16348,42.8183 -74.16349,-42.8183 0,-85.63662 74.16349,-42.8183 74.16348,42.8183 z"
         transform="matrix(0.13029085,0,0,0.12893143,114.94631,19.553178)" />
      <path
         sodipodi:type="star"
         style="fill:#ffbc00;fill-opacity:1;stroke:#9a4f00;stroke-width:7.71549;stroke-linecap:round;stroke-linejoin:round;stroke-dasharray:none;stroke-opacity:1"
         id="path1-6"
         inkscape:flatsided="true"
         sodipodi:sides="6"
         sodipodi:cx="793.96204"
         sodipodi:cy="314.84375"
         sodipodi:r1="85.636612"
         sodipodi:r2="74.163483"
         sodipodi:arg1="0.52359878"
         sodipodi:arg2="1.0471976"
         inkscape:rounded="0"
         inkscape:randomized="0"
         d="m 868.12552,357.66206 -74.16348,42.8183 -74.16349,-42.8183 0,-85.63662 74.16349,-42.8183 74.16348,42.8183 z"
         transform="matrix(0.13029085,0,0,0.12893143,105.28349,36.115054)" />
      <path
         sodipodi:type="star"
         style="fill:#ffbc00;fill-opacity:1;stroke:#9a4f00;stroke-width:7.71549;stroke-linecap:round;stroke-linejoin:round;stroke-dasharray:none;stroke-opacity:1"
         id="path1-3-7-2"
         inkscape:flatsided="true"
         sodipodi:sides="6"
         sodipodi:cx="793.96204"
         sodipodi:cy="314.84375"
         sodipodi:r1="85.636612"
         sodipodi:r2="74.163483"
         sodipodi:arg1="0.52359878"
         sodipodi:arg2="1.0471976"
         inkscape:rounded="0"
         inkscape:randomized="0"
         d="m 868.12552,357.66206 -74.16348,42.8183 -74.16349,-42.8183 0,-85.63662 74.16349,-42.8183 74.16348,42.8183 z"
         transform="matrix(0.13029085,0,0,0.12893143,85.957842,36.117032)" />
      <path
         sodipodi:type="star"
         style="fill:#ffbc00;fill-opacity:1;stroke:#9a4f00;stroke-width:7.71549;stroke-linecap:round;stroke-linejoin:round;stroke-dasharray:none;stroke-opacity:1"
         id="path1-3-7-0"
         inkscape:flatsided="true"
         sodipodi:sides="6"
         sodipodi:cx="793.96204"
         sodipodi:cy="314.84375"
         sodipodi:r1="85.636612"
         sodipodi:r2="74.163483"
         sodipodi:arg1="0.52359878"
         sodipodi:arg2="1.0471976"
         inkscape:rounded="0"
         inkscape:randomized="0"
         d="m 868.12552,357.66206 -74.16348,42.8183 -74.16349,-42.8183 0,-85.63662 74.16349,-42.8183 74.16348,42.8183 z"
         transform="matrix(0.13029085,0,0,0.12893143,114.94631,52.681873)" />
      <path
         sodipodi:type="star"
         style="fill:#ffbc00;fill-opacity:1;stroke:#9a4f00;stroke-width:7.71549;stroke-linecap:round;stroke-linejoin:round;stroke-dasharray:none;stroke-opacity:1"
         id="path1-3-7-9-9"
         inkscape:flatsided="true"
         sodipodi:sides="6"
         sodipodi:cx="793.96204"
         sodipodi:cy="314.84375"
         sodipodi:r1="85.636612"
         sodipodi:r2="74.163483"
         sodipodi:arg1="0.52359878"
         sodipodi:arg2="1.0471976"
         inkscape:rounded="0"
         inkscape:randomized="0"
         d="m 868.12552,357.66206 -74.16348,42.8183 -74.16349,-42.8183 0,-85.63662 74.16349,-42.8183 74.16348,42.8183 z"
         transform="matrix(0.13029085,0,0,0.12893143,95.620667,52.680885)" />
      <path
         sodipodi:type="star"
         style="fill:#ffbc00;fill-opacity:1;stroke:#9a4f00;stroke-width:7.71549;stroke-linecap:round;stroke-linejoin:round;stroke-dasharray:none;stroke-opacity:1"
         id="path1-7"
         inkscape:flatsided="true"
         sodipodi:sides="6"
         sodipodi:cx="793.96204"
         sodipodi:cy="314.84375"
         sodipodi:r1="85.636612"
         sodipodi:r2="74.163483"
         sodipodi:arg1="0.52359878"
         sodipodi:arg2="1.0471976"
         inkscape:rounded="0"
         inkscape:randomized="0"
         d="m 868.12552,357.66206 -74.16348,42.8183 -74.16349,-42.8183 0,-85.63662 74.16349,-42.8183 74.16348,42.8183 z"
         transform="matrix(0.13029085,0,0,0.12893143,85.957842,102.36651)" />
      <path
         sodipodi:type="star"
         style="fill:#ffbc00;fill-opacity:1;stroke:#9a4f00;stroke-width:7.71549;stroke-linecap:round;stroke-linejoin:round;stroke-dasharray:none;stroke-opacity:1"
         id="path1-3-3"
         inkscape:flatsided="true"
         sodipodi:sides="6"
         sodipodi:cx="793.96204"
         sodipodi:cy="314.84375"
         sodipodi:r1="85.636612"
         sodipodi:r2="74.163483"
         sodipodi:arg1="0.52359878"
         sodipodi:arg2="1.0471976"
         inkscape:rounded="0"
         inkscape:randomized="0"
         d="m 868.12552,357.66206 -74.16348,42.8183 -74.16349,-42.8183 0,-85.63662 74.16349,-42.8183 74.16348,42.8183 z"
         transform="matrix(0.13029085,0,0,0.12893143,105.28349,102.36651)" />
      <path
         sodipodi:type="star"
         style="fill:#ffbc00;fill-opacity:1;stroke:#9a4f00;stroke-width:7.71549;stroke-linecap:round;stroke-linejoin:round;stroke-dasharray:none;stroke-opacity:1"
         id="path1-6-6"
         inkscape:flatsided="true"
         sodipodi:sides="6"
         sodipodi:cx="793.96204"
         sodipodi:cy="314.84375"
         sodipodi:r1="85.636612"
         sodipodi:r2="74.163483"
         sodipodi:arg1="0.52359878"
         sodipodi:arg2="1.0471976"
         inkscape:rounded="0"
         inkscape:randomized="0"
         d="m 868.12552,357.66206 -74.16348,42.8183 -74.16349,-42.8183 0,-85.63662 74.16349,-42.8183 74.16348,42.8183 z"
         transform="matrix(0.13029085,0,0,0.12893143,95.620665,118.92839)" />
      <path
         sodipodi:type="star"
         style="fill:#ffbc00;fill-opacity:1;stroke:#9a4f00;stroke-width:7.71549;stroke-linecap:round;stroke-linejoin:round;stroke-dasharray:none;stroke-opacity:1"
         id="path1-3-7-1"
         inkscape:flatsided="true"
         sodipodi:sides="6"
         sodipodi:cx="793.96204"
         sodipodi:cy="314.84375"
         sodipodi:r1="85.636612"
         sodipodi:r2="74.163483"
         sodipodi:arg1="0.52359878"
         sodipodi:arg2="1.0471976"
         inkscape:rounded="0"
         inkscape:randomized="0"
         d="m 868.12552,357.66206 -74.16348,42.8183 -74.16349,-42.8183 0,-85.63662 74.16349,-42.8183 74.16348,42.8183 z"
         transform="matrix(0.13029085,0,0,0.12893143,114.94631,118.92839)" />
      <path
         sodipodi:type="star"
         style="fill:#ffbc00;fill-opacity:1;stroke:#9a4f00;stroke-width:7.71549;stroke-linecap:round;stroke-linejoin:round;stroke-dasharray:none;stroke-opacity:1"
         id="path1-3-5-2"
         inkscape:flatsided="true"
         sodipodi:sides="6"
         sodipodi:cx="793.96204"
         sodipodi:cy="314.84375"
         sodipodi:r1="85.636612"
         sodipodi:r2="74.163483"
         sodipodi:arg1="0.52359878"
         sodipodi:arg2="1.0471976"
         inkscape:rounded="0"
         inkscape:randomized="0"
         d="m 868.12552,357.66206 -74.16348,42.8183 -74.16349,-42.8183 0,-85.63662 74.16349,-42.8183 74.16348,42.8183 z"
         transform="matrix(0.13029085,0,0,0.12893143,124.60914,102.36651)" />
      <path
         sodipodi:type="star"
         style="fill:#ffbc00;fill-opacity:1;stroke:#9a4f00;stroke-width:7.71549;stroke-linecap:round;stroke-linejoin:round;stroke-dasharray:none;stroke-opacity:1"
         id="path1-35-9"
         inkscape:flatsided="true"
         sodipodi:sides="6"
         sodipodi:cx="793.96204"
         sodipodi:cy="314.84375"
         sodipodi:r1="85.636612"
         sodipodi:r2="74.163483"
         sodipodi:arg1="0.52359878"
         sodipodi:arg2="1.0471976"
         inkscape:rounded="0"
         inkscape:randomized="0"
         d="m 868.12552,357.66206 -74.16348,42.8183 -74.16349,-42.8183 0,-85.63662 74.16349,-42.8183 74.16348,42.8183 z"
         transform="matrix(0.13029085,0,0,0.12893143,85.957843,69.242756)" />
      <path
         sodipodi:type="star"
         style="fill:#ffbc00;fill-opacity:1;stroke:#9a4f00;stroke-width:7.71549;stroke-linecap:round;stroke-linejoin:round;stroke-dasharray:none;stroke-opacity:1"
         id="path1-3-6-3"
         inkscape:flatsided="true"
         sodipodi:sides="6"
         sodipodi:cx="793.96204"
         sodipodi:cy="314.84375"
         sodipodi:r1="85.636612"
         sodipodi:r2="74.163483"
         sodipodi:arg1="0.52359878"
         sodipodi:arg2="1.0471976"
         inkscape:rounded="0"
         inkscape:randomized="0"
         d="m 868.12552,357.66206 -74.16348,42.8183 -74.16349,-42.8183 0,-85.63662 74.16349,-42.8183 74.16348,42.8183 z"
         transform="matrix(0.13029085,0,0,0.12893143,105.28349,69.242756)" />
      <path
         sodipodi:type="star"
         style="fill:#ffbc00;fill-opacity:1;stroke:#9a4f00;stroke-width:7.71549;stroke-linecap:round;stroke-linejoin:round;stroke-dasharray:none;stroke-opacity:1"
         id="path1-6-2-1"
         inkscape:flatsided="true"
         sodipodi:sides="6"
         sodipodi:cx="793.96204"
         sodipodi:cy="314.84375"
         sodipodi:r1="85.636612"
         sodipodi:r2="74.163483"
         sodipodi:arg1="0.52359878"
         sodipodi:arg2="1.0471976"
         inkscape:rounded="0"
         inkscape:randomized="0"
         d="m 868.12552,357.66206 -74.16348,42.8183 -74.16349,-42.8183 0,-85.63662 74.16349,-42.8183 74.16348,42.8183 z"
         transform="matrix(0.13029085,0,0,0.12893143,95.620666,85.80463)" />
      <path
         sodipodi:type="star"
         style="fill:#ffbc00;fill-opacity:1;stroke:#9a4f00;stroke-width:7.71549;stroke-linecap:round;stroke-linejoin:round;stroke-dasharray:none;stroke-opacity:1"
         id="path1-3-7-9-94"
         inkscape:flatsided="true"
         sodipodi:sides="6"
         sodipodi:cx="793.96204"
         sodipodi:cy="314.84375"
         sodipodi:r1="85.636612"
         sodipodi:r2="74.163483"
         sodipodi:arg1="0.52359878"
         sodipodi:arg2="1.0471976"
         inkscape:rounded="0"
         inkscape:randomized="0"
         d="m 868.12552,357.66206 -74.16348,42.8183 -74.16349,-42.8183 0,-85.63662 74.16349,-42.8183 74.16348,42.8183 z"
         transform="matrix(0.13029085,0,0,0.12893143,114.94631,85.80463)" />
      <path
         sodipodi:type="star"
         style="fill:#ffbc00;fill-opacity:1;stroke:#9a4f00;stroke-width:7.71549;stroke-linecap:round;stroke-linejoin:round;stroke-dasharray:none;stroke-opacity:1"
         id="path1-3-7-2-4"
         inkscape:flatsided="true"
         sodipodi:sides="6"
         sodipodi:cx="793.96204"
         sodipodi:cy="314.84375"
         sodipodi:r1="85.636612"
         sodipodi:r2="74.163483"
         sodipodi:arg1="0.52359878"
         sodipodi:arg2="1.0471976"
         inkscape:rounded="0"
         inkscape:randomized="0"
         d="m 868.12552,357.66206 -74.16348,42.8183 -74.16349,-42.8183 0,-85.63662 74.16349,-42.8183 74.16348,42.8183 z"
         transform="matrix(0.13029085,0,0,0.12893143,192.27112,118.81788)" />
      <path
         sodipodi:type="star"
         style="fill:#ffbc00;fill-opacity:1;stroke:#9a4f00;stroke-width:7.71549;stroke-linecap:round;stroke-linejoin:round;stroke-dasharray:none;stroke-opacity:1"
         id="path1-3-7-9-7-5"
         inkscape:flatsided="true"
         sodipodi:sides="6"
         sodipodi:cx="793.96204"
         sodipodi:cy="314.84375"
         sodipodi:r1="85.636612"
         sodipodi:r2="74.163483"
         sodipodi:arg1="0.52359878"
         sodipodi:arg2="1.0471976"
         inkscape:rounded="0"
         inkscape:randomized="0"
         d="m 868.12552,357.66206 -74.16348,42.8183 -74.16349,-42.8183 0,-85.63662 74.16349,-42.8183 74.16348,42.8183 z"
         transform="matrix(0.13029085,0,0,0.12893143,192.27112,85.694131)" />
      <path
         sodipodi:type="star"
         style="fill:#ffbc00;fill-opacity:1;stroke:#9a4f00;stroke-width:7.71549;stroke-linecap:round;stroke-linejoin:round;stroke-dasharray:none;stroke-opacity:1"
         id="path1-3-7-0-3-6"
         inkscape:flatsided="true"
         sodipodi:sides="6"
         sodipodi:cx="793.96204"
         sodipodi:cy="314.84375"
         sodipodi:r1="85.636612"
         sodipodi:r2="74.163483"
         sodipodi:arg1="0.52359878"
         sodipodi:arg2="1.0471976"
         inkscape:rounded="0"
         inkscape:randomized="0"
         d="m 868.12552,357.66206 -74.16348,42.8183 -74.16349,-42.8183 0,-85.63662 74.16349,-42.8183 74.16348,42.8183 z"
         transform="matrix(0.13029085,0,0,0.12893143,124.60914,135.49619)" />
      <path
         sodipodi:type="star"
         style="fill:#ffbc00;fill-opacity:1;stroke:#9a4f00;stroke-width:7.71549;stroke-linecap:round;stroke-linejoin:round;stroke-dasharray:none;stroke-opacity:1"
         id="path1-6-8-3"
         inkscape:flatsided="true"
         sodipodi:sides="6"
         sodipodi:cx="793.96204"
         sodipodi:cy="314.84375"
         sodipodi:r1="85.636612"
         sodipodi:r2="74.163483"
         sodipodi:arg1="0.52359878"
         sodipodi:arg2="1.0471976"
         inkscape:rounded="0"
         inkscape:randomized="0"
         d="m 868.12552,357.66206 -74.16348,42.8183 -74.16349,-42.8183 0,-85.63662 74.16349,-42.8183 74.16348,42.8183 z"
         transform="matrix(0.13029085,0,0,0.12893143,153.5976,118.92641)" />
      <path
         sodipodi:type="star"
         style="fill:#ffbc00;fill-opacity:1;stroke:#9a4f00;stroke-width:7.71549;stroke-linecap:round;stroke-linejoin:round;stroke-dasharray:none;stroke-opacity:1"
         id="path1-3-7-7-2"
         inkscape:flatsided="true"
         sodipodi:sides="6"
         sodipodi:cx="793.96204"
         sodipodi:cy="314.84375"
         sodipodi:r1="85.636612"
         sodipodi:r2="74.163483"
         sodipodi:arg1="0.52359878"
         sodipodi:arg2="1.0471976"
         inkscape:rounded="0"
         inkscape:randomized="0"
         d="m 868.12552,357.66206 -74.16348,42.8183 -74.16349,-42.8183 0,-85.63662 74.16349,-42.8183 74.16348,42.8183 z"
         transform="matrix(0.13029085,0,0,0.12893143,172.92324,118.92641)" />
      <path
         sodipodi:type="star"
         style="fill:#ffbc00;fill-opacity:1;stroke:#9a4f00;stroke-width:7.71549;stroke-linecap:round;stroke-linejoin:round;stroke-dasharray:none;stroke-opacity:1"
         id="path1-3-5-9-0"
         inkscape:flatsided="true"
         sodipodi:sides="6"
         sodipodi:cx="793.96204"
         sodipodi:cy="314.84375"
         sodipodi:r1="85.636612"
         sodipodi:r2="74.163483"
         sodipodi:arg1="0.52359878"
         sodipodi:arg2="1.0471976"
         inkscape:rounded="0"
         inkscape:randomized="0"
         d="m 868.12552,357.66206 -74.16348,42.8183 -74.16349,-42.8183 0,-85.63662 74.16349,-42.8183 74.16348,42.8183 z"
         transform="matrix(0.13029085,0,0,0.12893143,182.58607,102.36453)" />
      <path
         sodipodi:type="star"
         style="fill:#ffbc00;fill-opacity:1;stroke:#9a4f00;stroke-width:7.71549;stroke-linecap:round;stroke-linejoin:round;stroke-dasharray:none;stroke-opacity:1"
         id="path1-3-7-2-5-7"
         inkscape:flatsided="true"
         sodipodi:sides="6"
         sodipodi:cx="793.96204"
         sodipodi:cy="314.84375"
         sodipodi:r1="85.636612"
         sodipodi:r2="74.163483"
         sodipodi:arg1="0.52359878"
         sodipodi:arg2="1.0471976"
         inkscape:rounded="0"
         inkscape:randomized="0"
         d="m 868.12552,357.66206 -74.16348,42.8183 -74.16349,-42.8183 0,-85.63662 74.16349,-42.8183 74.16348,42.8183 z"
         transform="matrix(0.13029085,0,0,0.12893143,134.27196,118.92839)" />
      <path
         sodipodi:type="star"
         style="fill:#ffbc00;fill-opacity:1;stroke:#9a4f00;stroke-width:7.71549;stroke-linecap:round;stroke-linejoin:round;stroke-dasharray:none;stroke-opacity:1"
         id="path1-3-7-0-2-5"
         inkscape:flatsided="true"
         sodipodi:sides="6"
         sodipodi:cx="793.96204"
         sodipodi:cy="314.84375"
         sodipodi:r1="85.636612"
         sodipodi:r2="74.163483"
         sodipodi:arg1="0.52359878"
         sodipodi:arg2="1.0471976"
         inkscape:rounded="0"
         inkscape:randomized="0"
         d="m 868.12552,357.66206 -74.16348,42.8183 -74.16349,-42.8183 0,-85.63662 74.16349,-42.8183 74.16348,42.8183 z"
         transform="matrix(0.13029085,0,0,0.12893143,163.26043,135.49323)" />
      <path
         sodipodi:type="star"
         style="fill:#ffbc00;fill-opacity:1;stroke:#9a4f00;stroke-width:7.71549;stroke-linecap:round;stroke-linejoin:round;stroke-dasharray:none;stroke-opacity:1"
         id="path1-3-7-9-9-2-6"
         inkscape:flatsided="true"
         sodipodi:sides="6"
         sodipodi:cx="793.96204"
         sodipodi:cy="314.84375"
         sodipodi:r1="85.636612"
         sodipodi:r2="74.163483"
         sodipodi:arg1="0.52359878"
         sodipodi:arg2="1.0471976"
         inkscape:rounded="0"
         inkscape:randomized="0"
         d="m 868.12552,357.66206 -74.16348,42.8183 -74.16349,-42.8183 0,-85.63662 74.16349,-42.8183 74.16348,42.8183 z"
         transform="matrix(0.13029085,0,0,0.12893143,143.93478,135.49224)" />
      <path
         sodipodi:type="star"
         style="fill:#ffbc00;fill-opacity:1;stroke:#9a4f00;stroke-width:7.71549;stroke-linecap:round;stroke-linejoin:round;stroke-dasharray:none;stroke-opacity:1"
         id="path1-3-7-0-3-8-9"
         inkscape:flatsided="true"
         sodipodi:sides="6"
         sodipodi:cx="793.96204"
         sodipodi:cy="314.84375"
         sodipodi:r1="85.636612"
         sodipodi:r2="74.163483"
         sodipodi:arg1="0.52359878"
         sodipodi:arg2="1.0471976"
         inkscape:rounded="0"
         inkscape:randomized="0"
         d="m 868.12552,357.66206 -74.16348,42.8183 -74.16349,-42.8183 0,-85.63662 74.16349,-42.8183 74.16348,42.8183 z"
         transform="matrix(0.13029085,0,0,0.12893143,182.58607,135.49422)" />
      <path
         sodipodi:type="star"
         style="display:inline;fill:#ffbc00;fill-opacity:1;stroke:#9a4f00;stroke-width:7.71549;stroke-linecap:round;stroke-linejoin:round;stroke-dasharray:none;stroke-opacity:1"
         id="path1-35-9-4"
         inkscape:flatsided="true"
         sodipodi:sides="6"
         sodipodi:cx="793.96204"
         sodipodi:cy="314.84375"
         sodipodi:r1="85.636612"
         sodipodi:r2="74.163483"
         sodipodi:arg1="0.52359878"
         sodipodi:arg2="1.0471976"
         inkscape:rounded="0"
         inkscape:randomized="0"
         d="m 868.12552,357.66206 -74.16348,42.8183 -74.16349,-42.8183 0,-85.63662 74.16349,-42.8183 74.16348,42.8183 z"
         transform="matrix(0.13029085,0,0,0.12893143,85.834582,2.9853732)" />
      <path
         sodipodi:type="star"
         style="display:inline;fill:#ffbc00;fill-opacity:1;stroke:#9a4f00;stroke-width:7.71549;stroke-linecap:round;stroke-linejoin:round;stroke-dasharray:none;stroke-opacity:1"
         id="path1-3-6-3-9"
         inkscape:flatsided="true"
         sodipodi:sides="6"
         sodipodi:cx="793.96204"
         sodipodi:cy="314.84375"
         sodipodi:r1="85.636612"
         sodipodi:r2="74.163483"
         sodipodi:arg1="0.52359878"
         sodipodi:arg2="1.0471976"
         inkscape:rounded="0"
         inkscape:randomized="0"
         d="m 868.12552,357.66206 -74.16348,42.8183 -74.16349,-42.8183 0,-85.63662 74.16349,-42.8183 74.16348,42.8183 z"
         transform="matrix(0.13029085,0,0,0.12893143,105.16023,2.9853732)" />
      <path
         sodipodi:type="star"
         style="display:inline;fill:#ffbc00;fill-opacity:1;stroke:#9a4f00;stroke-width:7.71549;stroke-linecap:round;stroke-linejoin:round;stroke-dasharray:none;stroke-opacity:1"
         id="path1-2-7"
         inkscape:flatsided="true"
         sodipodi:sides="6"
         sodipodi:cx="793.96204"
         sodipodi:cy="314.84375"
         sodipodi:r1="85.636612"
         sodipodi:r2="74.163483"
         sodipodi:arg1="0.52359878"
         sodipodi:arg2="1.0471976"
         inkscape:rounded="0"
         inkscape:randomized="0"
         d="m 868.12552,357.66206 -74.16348,42.8183 -74.16349,-42.8183 0,-85.63662 74.16349,-42.8183 74.16348,42.8183 z"
         transform="matrix(0.13029085,0,0,0.12893143,201.93394,2.8758537)" />
      <path
         sodipodi:type="star"
         style="display:inline;fill:#ffbc00;fill-opacity:1;stroke:#9a4f00;stroke-width:7.71549;stroke-linecap:round;stroke-linejoin:round;stroke-dasharray:none;stroke-opacity:1"
         id="path1-3-61-7"
         inkscape:flatsided="true"
         sodipodi:sides="6"
         sodipodi:cx="793.96204"
         sodipodi:cy="314.84375"
         sodipodi:r1="85.636612"
         sodipodi:r2="74.163483"
         sodipodi:arg1="0.52359878"
         sodipodi:arg2="1.0471976"
         inkscape:rounded="0"
         inkscape:randomized="0"
         d="m 868.12552,357.66206 -74.16348,42.8183 -74.16349,-42.8183 0,-85.63662 74.16349,-42.8183 74.16348,42.8183 z"
         transform="matrix(0.13029085,0,0,0.12893143,221.25959,2.8758537)" />
      <path
         sodipodi:type="star"
         style="display:inline;fill:#ffbc00;fill-opacity:1;stroke:#9a4f00;stroke-width:7.71549;stroke-linecap:round;stroke-linejoin:round;stroke-dasharray:none;stroke-opacity:1"
         id="path1-6-8-4"
         inkscape:flatsided="true"
         sodipodi:sides="6"
         sodipodi:cx="793.96204"
         sodipodi:cy="314.84375"
         sodipodi:r1="85.636612"
         sodipodi:r2="74.163483"
         sodipodi:arg1="0.52359878"
         sodipodi:arg2="1.0471976"
         inkscape:rounded="0"
         inkscape:randomized="0"
         d="m 868.12552,357.66206 -74.16348,42.8183 -74.16349,-42.8183 0,-85.63662 74.16349,-42.8183 74.16348,42.8183 z"
         transform="matrix(0.13029085,0,0,0.12893143,211.59676,19.43773)" />
      <path
         sodipodi:type="star"
         style="display:inline;fill:#ffbc00;fill-opacity:1;stroke:#9a4f00;stroke-width:7.71549;stroke-linecap:round;stroke-linejoin:round;stroke-dasharray:none;stroke-opacity:1"
         id="path1-3-7-7-6"
         inkscape:flatsided="true"
         sodipodi:sides="6"
         sodipodi:cx="793.96204"
         sodipodi:cy="314.84375"
         sodipodi:r1="85.636612"
         sodipodi:r2="74.163483"
         sodipodi:arg1="0.52359878"
         sodipodi:arg2="1.0471976"
         inkscape:rounded="0"
         inkscape:randomized="0"
         d="m 868.12552,357.66206 -74.16348,42.8183 -74.16349,-42.8183 0,-85.63662 74.16349,-42.8183 74.16348,42.8183 z"
         transform="matrix(0.13029085,0,0,0.12893143,230.92241,19.43773)" />
      <path
         sodipodi:type="star"
         style="display:inline;fill:#ffbc00;fill-opacity:1;stroke:#9a4f00;stroke-width:7.71549;stroke-linecap:round;stroke-linejoin:round;stroke-dasharray:none;stroke-opacity:1"
         id="path1-3-7-0-2-6"
         inkscape:flatsided="true"
         sodipodi:sides="6"
         sodipodi:cx="793.96204"
         sodipodi:cy="314.84375"
         sodipodi:r1="85.636612"
         sodipodi:r2="74.163483"
         sodipodi:arg1="0.52359878"
         sodipodi:arg2="1.0471976"
         inkscape:rounded="0"
         inkscape:randomized="0"
         d="m 868.12552,357.66206 -74.16348,42.8183 -74.16349,-42.8183 0,-85.63662 74.16349,-42.8183 74.16348,42.8183 z"
         transform="matrix(0.13029085,0,0,0.12893143,221.25959,36.004549)" />
      <path
         sodipodi:type="star"
         style="display:inline;fill:#ffbc00;fill-opacity:1;stroke:#9a4f00;stroke-width:7.71549;stroke-linecap:round;stroke-linejoin:round;stroke-dasharray:none;stroke-opacity:1"
         id="path1-3-7-9-9-2-0"
         inkscape:flatsided="true"
         sodipodi:sides="6"
         sodipodi:cx="793.96204"
         sodipodi:cy="314.84375"
         sodipodi:r1="85.636612"
         sodipodi:r2="74.163483"
         sodipodi:arg1="0.52359878"
         sodipodi:arg2="1.0471976"
         inkscape:rounded="0"
         inkscape:randomized="0"
         d="m 868.12552,357.66206 -74.16348,42.8183 -74.16349,-42.8183 0,-85.63662 74.16349,-42.8183 74.16348,42.8183 z"
         transform="matrix(0.13029085,0,0,0.12893143,201.93395,36.003561)" />
      <path
         sodipodi:type="star"
         style="display:inline;fill:#ffbc00;fill-opacity:1;stroke:#9a4f00;stroke-width:7.71549;stroke-linecap:round;stroke-linejoin:round;stroke-dasharray:none;stroke-opacity:1"
         id="path1-3-7-0-3-8-99"
         inkscape:flatsided="true"
         sodipodi:sides="6"
         sodipodi:cx="793.96204"
         sodipodi:cy="314.84375"
         sodipodi:r1="85.636612"
         sodipodi:r2="74.163483"
         sodipodi:arg1="0.52359878"
         sodipodi:arg2="1.0471976"
         inkscape:rounded="0"
         inkscape:randomized="0"
         d="m 868.12552,357.66206 -74.16348,42.8183 -74.16349,-42.8183 0,-85.63662 74.16349,-42.8183 74.16348,42.8183 z"
         transform="matrix(0.13029085,0,0,0.12893143,240.58524,36.005537)" />
      <path
         sodipodi:type="star"
         style="display:inline;fill:#ffbc00;fill-opacity:1;stroke:#9a4f00;stroke-width:7.71549;stroke-linecap:round;stroke-linejoin:round;stroke-dasharray:none;stroke-opacity:1"
         id="path1-3-7-9-7-5-1"
         inkscape:flatsided="true"
         sodipodi:sides="6"
         sodipodi:cx="793.96204"
         sodipodi:cy="314.84375"
         sodipodi:r1="85.636612"
         sodipodi:r2="74.163483"
         sodipodi:arg1="0.52359878"
         sodipodi:arg2="1.0471976"
         inkscape:rounded="0"
         inkscape:randomized="0"
         d="m 868.12552,357.66206 -74.16348,42.8183 -74.16349,-42.8183 0,-85.63662 74.16349,-42.8183 74.16348,42.8183 z"
         transform="matrix(0.13029085,0,0,0.12893143,240.60747,69.018785)" />
      <path
         sodipodi:type="star"
         style="display:inline;fill:#ffbc00;fill-opacity:1;stroke:#9a4f00;stroke-width:7.71549;stroke-linecap:round;stroke-linejoin:round;stroke-dasharray:none;stroke-opacity:1"
         id="path1-3-61-6-7"
         inkscape:flatsided="true"
         sodipodi:sides="6"
         sodipodi:cx="793.96204"
         sodipodi:cy="314.84375"
         sodipodi:r1="85.636612"
         sodipodi:r2="74.163483"
         sodipodi:arg1="0.52359878"
         sodipodi:arg2="1.0471976"
         inkscape:rounded="0"
         inkscape:randomized="0"
         d="m 868.12552,357.66206 -74.16348,42.8183 -74.16349,-42.8183 0,-85.63662 74.16349,-42.8183 74.16348,42.8183 z"
         transform="matrix(0.13029085,0,0,0.12893143,211.59677,85.689184)" />
      <path
         sodipodi:type="star"
         style="display:inline;fill:#ffbc00;fill-opacity:1;stroke:#9a4f00;stroke-width:7.71549;stroke-linecap:round;stroke-linejoin:round;stroke-dasharray:none;stroke-opacity:1"
         id="path1-6-8-3-3"
         inkscape:flatsided="true"
         sodipodi:sides="6"
         sodipodi:cx="793.96204"
         sodipodi:cy="314.84375"
         sodipodi:r1="85.636612"
         sodipodi:r2="74.163483"
         sodipodi:arg1="0.52359878"
         sodipodi:arg2="1.0471976"
         inkscape:rounded="0"
         inkscape:randomized="0"
         d="m 868.12552,357.66206 -74.16348,42.8183 -74.16349,-42.8183 0,-85.63662 74.16349,-42.8183 74.16348,42.8183 z"
         transform="matrix(0.13029085,0,0,0.12893143,201.93394,102.25107)" />
      <path
         sodipodi:type="star"
         style="display:inline;fill:#ffbc00;fill-opacity:1;stroke:#9a4f00;stroke-width:7.71549;stroke-linecap:round;stroke-linejoin:round;stroke-dasharray:none;stroke-opacity:1"
         id="path1-3-7-7-2-0"
         inkscape:flatsided="true"
         sodipodi:sides="6"
         sodipodi:cx="793.96204"
         sodipodi:cy="314.84375"
         sodipodi:r1="85.636612"
         sodipodi:r2="74.163483"
         sodipodi:arg1="0.52359878"
         sodipodi:arg2="1.0471976"
         inkscape:rounded="0"
         inkscape:randomized="0"
         d="m 868.12552,357.66206 -74.16348,42.8183 -74.16349,-42.8183 0,-85.63662 74.16349,-42.8183 74.16348,42.8183 z"
         transform="matrix(0.13029085,0,0,0.12893143,221.25959,102.25107)" />
      <path
         sodipodi:type="star"
         style="display:inline;fill:#ffbc00;fill-opacity:1;stroke:#9a4f00;stroke-width:7.71549;stroke-linecap:round;stroke-linejoin:round;stroke-dasharray:none;stroke-opacity:1"
         id="path1-3-5-9-0-8"
         inkscape:flatsided="true"
         sodipodi:sides="6"
         sodipodi:cx="793.96204"
         sodipodi:cy="314.84375"
         sodipodi:r1="85.636612"
         sodipodi:r2="74.163483"
         sodipodi:arg1="0.52359878"
         sodipodi:arg2="1.0471976"
         inkscape:rounded="0"
         inkscape:randomized="0"
         d="m 868.12552,357.66206 -74.16348,42.8183 -74.16349,-42.8183 0,-85.63662 74.16349,-42.8183 74.16348,42.8183 z"
         transform="matrix(0.13029085,0,0,0.12893143,230.92241,85.689184)" />
      <path
         sodipodi:type="star"
         style="display:inline;fill:#ffbc00;fill-opacity:1;stroke:#9a4f00;stroke-width:7.71549;stroke-linecap:round;stroke-linejoin:round;stroke-dasharray:none;stroke-opacity:1"
         id="path1-3-6-0-1-5"
         inkscape:flatsided="true"
         sodipodi:sides="6"
         sodipodi:cx="793.96204"
         sodipodi:cy="314.84375"
         sodipodi:r1="85.636612"
         sodipodi:r2="74.163483"
         sodipodi:arg1="0.52359878"
         sodipodi:arg2="1.0471976"
         inkscape:rounded="0"
         inkscape:randomized="0"
         d="m 868.12552,357.66206 -74.16348,42.8183 -74.16349,-42.8183 0,-85.63662 74.16349,-42.8183 74.16348,42.8183 z"
         transform="matrix(0.13029085,0,0,0.12893143,211.59677,52.565433)" />
      <path
         sodipodi:type="star"
         style="display:inline;fill:#ffbc00;fill-opacity:1;stroke:#9a4f00;stroke-width:7.71549;stroke-linecap:round;stroke-linejoin:round;stroke-dasharray:none;stroke-opacity:1"
         id="path1-6-2-2-5-4"
         inkscape:flatsided="true"
         sodipodi:sides="6"
         sodipodi:cx="793.96204"
         sodipodi:cy="314.84375"
         sodipodi:r1="85.636612"
         sodipodi:r2="74.163483"
         sodipodi:arg1="0.52359878"
         sodipodi:arg2="1.0471976"
         inkscape:rounded="0"
         inkscape:randomized="0"
         d="m 868.12552,357.66206 -74.16348,42.8183 -74.16349,-42.8183 0,-85.63662 74.16349,-42.8183 74.16348,42.8183 z"
         transform="matrix(0.13029085,0,0,0.12893143,201.93395,69.127307)" />
      <path
         sodipodi:type="star"
         style="display:inline;fill:#ffbc00;fill-opacity:1;stroke:#9a4f00;stroke-width:7.71549;stroke-linecap:round;stroke-linejoin:round;stroke-dasharray:none;stroke-opacity:1"
         id="path1-3-7-9-3-5-3"
         inkscape:flatsided="true"
         sodipodi:sides="6"
         sodipodi:cx="793.96204"
         sodipodi:cy="314.84375"
         sodipodi:r1="85.636612"
         sodipodi:r2="74.163483"
         sodipodi:arg1="0.52359878"
         sodipodi:arg2="1.0471976"
         inkscape:rounded="0"
         inkscape:randomized="0"
         d="m 868.12552,357.66206 -74.16348,42.8183 -74.16349,-42.8183 0,-85.63662 74.16349,-42.8183 74.16348,42.8183 z"
         transform="matrix(0.13029085,0,0,0.12893143,221.25959,69.127307)" />
      <path
         sodipodi:type="star"
         style="display:inline;fill:#ffbc00;fill-opacity:1;stroke:#9a4f00;stroke-width:7.71549;stroke-linecap:round;stroke-linejoin:round;stroke-dasharray:none;stroke-opacity:1"
         id="path1-3-5-1-7-4-9"
         inkscape:flatsided="true"
         sodipodi:sides="6"
         sodipodi:cx="793.96204"
         sodipodi:cy="314.84375"
         sodipodi:r1="85.636612"
         sodipodi:r2="74.163483"
         sodipodi:arg1="0.52359878"
         sodipodi:arg2="1.0471976"
         inkscape:rounded="0"
         inkscape:randomized="0"
         d="m 868.12552,357.66206 -74.16348,42.8183 -74.16349,-42.8183 0,-85.63662 74.16349,-42.8183 74.16348,42.8183 z"
         transform="matrix(0.13029085,0,0,0.12893143,230.92241,52.565433)" />
      <path
         sodipodi:type="star"
         style="display:inline;fill:#ffbc00;fill-opacity:1;stroke:#9a4f00;stroke-width:7.71549;stroke-linecap:round;stroke-linejoin:round;stroke-dasharray:none;stroke-opacity:1"
         id="path1-3-7-0-2-5-4"
         inkscape:flatsided="true"
         sodipodi:sides="6"
         sodipodi:cx="793.96204"
         sodipodi:cy="314.84375"
         sodipodi:r1="85.636612"
         sodipodi:r2="74.163483"
         sodipodi:arg1="0.52359878"
         sodipodi:arg2="1.0471976"
         inkscape:rounded="0"
         inkscape:randomized="0"
         d="m 868.12552,357.66206 -74.16348,42.8183 -74.16349,-42.8183 0,-85.63662 74.16349,-42.8183 74.16348,42.8183 z"
         transform="matrix(0.13029085,0,0,0.12893143,211.59677,118.81788)" />
      <path
         sodipodi:type="star"
         style="display:inline;fill:#ffbc00;fill-opacity:1;stroke:#9a4f00;stroke-width:7.71549;stroke-linecap:round;stroke-linejoin:round;stroke-dasharray:none;stroke-opacity:1"
         id="path1-2-9-2"
         inkscape:flatsided="true"
         sodipodi:sides="6"
         sodipodi:cx="793.96204"
         sodipodi:cy="314.84375"
         sodipodi:r1="85.636612"
         sodipodi:r2="74.163483"
         sodipodi:arg1="0.52359878"
         sodipodi:arg2="1.0471976"
         inkscape:rounded="0"
         inkscape:randomized="0"
         d="m 868.12552,357.66206 -74.16348,42.8183 -74.16349,-42.8183 0,-85.63662 74.16349,-42.8183 74.16348,42.8183 z"
         transform="matrix(0.13029085,0,0,0.12893143,201.91171,135.48828)" />
    </g>
    <path
       style="font-size:377.953px;line-height:125%;font-family:'Fun City Level 2';-inkscape-font-specification:'Fun City Level 2, Normal';letter-spacing:0px;word-spacing:0px;white-space:pre;display:inline;fill:none;fill-opacity:1;stroke:#000000;stroke-width:4;stroke-dasharray:none;stroke-opacity:1"
       d="M 310.33294,113.85324 V 47.211817 c 0,-3.417508 1.21162,-6.288216 3.63487,-8.612123 2.56579,-2.460606 5.63047,-3.690909 9.19406,-3.690909 3.5636,0 6.55702,1.230303 8.98026,3.690909 2.56578,2.323907 3.84867,5.194615 3.84867,8.612123 v 66.641423 c 0,19.00135 -6.98464,35.20034 -20.95391,48.59696 -22.56441,21.6394 -78.78537,21.63822 -101.34855,0 -13.96927,-13.39662 -20.95391,-29.59561 -20.95391,-48.59696 V 47.211817 c 0,-3.417508 1.21162,-6.288216 3.63486,-8.612123 2.56579,-2.460606 5.63048,-3.690909 9.19408,-3.690909 3.56358,0 6.55699,1.230303 8.98024,3.690909 2.56579,2.323907 3.84869,5.194615 3.84869,8.612123 v 67.666673 c 0.14253,11.75622 4.70392,21.94039 13.68417,30.55252 12.09976,11.41659 52.076,11.77897 64.7861,-0.4101 8.98025,-8.61211 13.47037,-19.00134 13.47037,-31.16767 z"
       id="path2"
       aria-label="U"
       sodipodi:nodetypes="sssscsssssscscsccss" />
  </g>
</svg>
